<?xml version="1.0" encoding="UTF-8" standalone="no"?>
<svg
   version="1.1"
   width="500.00128"
   height="85.125999"
   viewBox="0 0 500.00129 85.126004"
   id="svg11"
   sodipodi:docname="repliftlogo_mini3.svg"
   inkscape:version="1.3 (0e150ed, 2023-07-21)"
   xmlns:inkscape="http://www.inkscape.org/namespaces/inkscape"
   xmlns:sodipodi="http://sodipodi.sourceforge.net/DTD/sodipodi-0.dtd"
   xmlns:xlink="http://www.w3.org/1999/xlink"
   xmlns="http://www.w3.org/2000/svg"
   xmlns:svg="http://www.w3.org/2000/svg">
  <defs
     id="defs11">
    <linearGradient
       inkscape:collect="always"
       xlink:href="#SvgjsLinearGradient1044"
       id="linearGradient11"
       gradientTransform="scale(0.97881924,1.0216391)"
       x1="52.695389"
       y1="26.761038"
       x2="97.055359"
       y2="26.761038"
       gradientUnits="userSpaceOnUse" />
    <linearGradient
       inkscape:collect="always"
       xlink:href="#SvgjsLinearGradient1044"
       id="linearGradient12"
       gradientTransform="scale(0.97881233,1.0216463)"
       x1="5.1082592"
       y1="26.760849"
       x2="49.466934"
       y2="26.760849"
       gradientUnits="userSpaceOnUse" />
    <linearGradient
       inkscape:collect="always"
       xlink:href="#SvgjsLinearGradient1044"
       id="linearGradient13"
       gradientTransform="scale(1.4092109,0.70961701)"
       x1="3.5481043"
       y1="38.527996"
       x2="67.413368"
       y2="38.527996"
       gradientUnits="userSpaceOnUse" />
    <linearGradient
       inkscape:collect="always"
       xlink:href="#SvgjsLinearGradient1044"
       id="linearGradient14"
       gradientTransform="scale(1.4092109,0.70961701)"
       x1="3.5481043"
       y1="38.527996"
       x2="67.413368"
       y2="38.527996"
       gradientUnits="userSpaceOnUse" />
    <linearGradient
       inkscape:collect="always"
       xlink:href="#SvgjsLinearGradient1047"
       id="linearGradient15"
       gradientTransform="scale(2.693159,0.37131116)"
       x1="1.5662016"
       y1="3.5765152"
       x2="102.13953"
       y2="3.5765152"
       gradientUnits="userSpaceOnUse" />
    <linearGradient
       inkscape:collect="always"
       xlink:href="#SvgjsLinearGradient1047"
       id="linearGradient16"
       gradientTransform="scale(2.693159,0.37131116)"
       x1="1.5662016"
       y1="3.5765152"
       x2="102.13953"
       y2="3.5765152"
       gradientUnits="userSpaceOnUse" />
  </defs>
  <sodipodi:namedview
     id="namedview11"
     pagecolor="#ffffff"
     bordercolor="#000000"
     borderopacity="0.25"
     inkscape:showpageshadow="2"
     inkscape:pageopacity="0.0"
     inkscape:pagecheckerboard="0"
     inkscape:deskcolor="#d1d1d1"
     inkscape:zoom="1.979899"
     inkscape:cx="251.02291"
     inkscape:cy="28.536809"
     inkscape:window-width="1824"
     inkscape:window-height="1212"
     inkscape:window-x="0"
     inkscape:window-y="25"
     inkscape:window-maximized="0"
     inkscape:current-layer="svg11" />
  <rect
     fill="#303a52"
     width="499.5947"
     height="84.760208"
     id="rect1"
     x="0.20329285"
     y="0.18289566"
     style="stroke-width:0.157714" />
  <g
     transform="matrix(0.90415998,0,0,0.90415998,82.778636,21.595443)"
     id="g11">
    <defs
       id="SvgjsDefs1039">
      <linearGradient
         id="SvgjsLinearGradient1044">
        <stop
           id="SvgjsStop1045"
           stop-color="#b88746"
           offset="0" />
        <stop
           id="SvgjsStop1046"
           stop-color="#fdf5a6"
           offset="1" />
      </linearGradient>
      <linearGradient
         id="SvgjsLinearGradient1047">
        <stop
           id="SvgjsStop1048"
           stop-color="#b88746"
           offset="0" />
        <stop
           id="SvgjsStop1049"
           stop-color="#fdf5a6"
           offset="1" />
      </linearGradient>
    </defs>
    <g
       id="SvgjsG1040"
       featureKey="symbolFeature-0"
       transform="matrix(1.0233962,0,0,1.0233962,-5.1170086,-27.979776)"
       fill="url(#SvgjsLinearGradient1044)"
       style="fill:url(#linearGradient14)">
      <g
         id="g10"
         style="fill:url(#linearGradient13)">
        <path
           fill="none"
           d="m 58.618,60.872 c 0.012,0 0.024,0 0.036,0 5.566,0 13.354,-0.972 14.616,-1.392 0.631,-0.21 1.629,-3.253 2.26,-6.213 -2.593,0.55 -7.391,1.324 -14.245,1.447 -0.739,1.634 -1.635,3.702 -2.667,6.158 z"
           id="path1" />
        <path
           fill="none"
           d="m 36.485,49.738 c -0.941,-1.194 -10.836,-4.55 -20.452,-7.36 1.271,2.993 3.125,6.894 3.964,7.48 1.151,0.804 7.205,2.595 17.822,2.821 -0.445,-1.108 -1.034,-2.56 -1.334,-2.941 0,10e-4 0,0 0,0 z"
           id="path2" />
        <path
           fill="none"
           d="M 41.124,39.212 C 36.856,36.429 11.478,29.854 6.289,28.528 l 3.991,9.881 c 3.552,1.043 26.01,7.718 27.905,10.246 1.507,2.009 6.736,14.753 9.071,20.53 -0.715,-9.722 -2.714,-27.744 -6.132,-29.973 z"
           id="path3" />
        <path
           fill="none"
           d="m 26.73,59.48 c 1.265,0.422 9.076,1.388 14.653,1.392 -1.03,-2.452 -1.925,-4.519 -2.667,-6.159 -6.857,-0.123 -11.655,-0.897 -14.248,-1.447 0.614,2.91 1.627,6.003 2.262,6.214 z"
           id="path4" />
        <path
           fill="none"
           d="m 37.403,62.873 c -2.396,-0.081 -4.341,-0.319 -5.399,-0.474 0.615,1.385 2.071,4.206 4.041,5.038 0.415,0.175 1.267,0.386 2.253,0.63 2.191,0.542 5.27,1.303 7.58,2.609 -0.987,-1.964 -2.606,-5.227 -3.753,-7.745 -0.607,0.015 -2.076,0.032 -4.722,-0.058 z"
           id="path5" />
        <path
           fill="none"
           d="m 52.744,69.185 c 2.334,-5.777 7.564,-18.521 9.071,-20.53 1.895,-2.528 24.353,-9.203 27.905,-10.246 l 3.991,-9.881 c -5.188,1.326 -30.567,7.901 -34.835,10.684 -3.418,2.229 -5.417,20.251 -6.132,29.973 z"
           id="path6" />
        <path
           fill="none"
           d="m 63.515,49.738 c -0.3,0.38 -0.888,1.832 -1.334,2.941 10.616,-0.226 16.671,-2.018 17.822,-2.821 0.883,-0.616 2.844,-4.831 3.967,-7.481 -9.617,2.811 -19.513,6.167 -20.455,7.361 z"
           id="path7" />
        <path
           fill="none"
           d="m 63.956,67.437 c 1.97,-0.832 3.426,-3.653 4.041,-5.038 -1.058,0.155 -3.003,0.394 -5.399,0.474 -2.647,0.089 -4.116,0.073 -4.722,0.057 -1.147,2.518 -2.767,5.781 -3.753,7.745 2.31,-1.306 5.389,-2.067 7.58,-2.609 0.986,-0.243 1.837,-0.454 2.253,-0.629 z"
           id="path8" />
        <path
           d="m 94.881,27.506 c -0.119,-0.137 -0.305,-0.196 -0.483,-0.151 -1.271,0.32 -31.182,7.871 -36.051,11.047 -5.005,3.264 -6.697,32.505 -6.767,33.748 -0.013,0.237 0.147,0.448 0.378,0.499 0.035,0.008 0.07,0.011 0.105,0.011 0.15,0 0.29,-0.071 0.381,-0.19 0.025,0.032 0.048,0.064 0.081,0.089 0.087,0.067 0.191,0.1 0.295,0.1 0.116,0 0.232,-0.042 0.323,-0.124 2.084,-1.873 6.12,-2.871 8.79,-3.531 1.068,-0.264 1.912,-0.473 2.397,-0.678 3.02,-1.276 4.821,-6.172 4.896,-6.379 0.059,-0.163 0.026,-0.345 -0.086,-0.478 -0.112,-0.132 -0.286,-0.195 -0.457,-0.162 -0.026,0.005 -2.611,0.48 -6.119,0.598 -3.513,0.119 -4.956,0.047 -4.971,0.047 -0.198,-0.013 -0.384,0.102 -0.466,0.284 -0.963,2.134 -2.32,4.901 -3.335,6.936 2.387,-5.894 7.401,-18.08 8.796,-19.939 0.138,-0.184 0.441,-0.406 0.872,-0.656 -0.326,0.204 -0.573,0.394 -0.705,0.561 -0.367,0.465 -0.859,1.655 -1.514,3.285 l -0.23,0.57 c -0.022,0.053 -0.03,0.109 -0.032,0.164 0,0.006 -0.004,0.011 -0.004,0.017 0,0.008 0.003,0.015 0.003,0.023 10e-4,0.026 0.005,0.052 0.011,0.077 0.003,0.016 0.006,0.033 0.011,0.049 0.008,0.025 0.02,0.048 0.032,0.072 0.008,0.015 0.014,0.03 0.023,0.044 0.002,0.003 0.003,0.006 0.004,0.008 0.019,0.028 0.042,0.053 0.067,0.076 0.005,0.004 0.008,0.01 0.013,0.014 0.032,0.028 0.068,0.051 0.106,0.07 0.003,0.002 0.006,0.004 0.009,0.006 0.005,0.002 0.01,10e-4 0.015,0.003 0.059,0.025 0.122,0.042 0.188,0.042 v 0 0 0 c 0.002,0 0.004,0 0.007,0 4.815,-0.069 8.903,-0.47 12.073,-0.995 -2.785,0.486 -6.995,1.004 -12.576,1.087 -0.187,0.003 -0.355,0.113 -0.433,0.283 -0.831,1.825 -1.868,4.223 -3.083,7.128 -0.062,0.148 -0.047,0.317 0.041,0.451 0.088,0.134 0.236,0.216 0.397,0.219 0.233,0.004 0.473,0.006 0.718,0.006 5.416,0 13.508,-0.953 14.973,-1.441 1.791,-0.597 3.063,-7.776 3.053,-7.841 -0.021,-0.132 -0.097,-0.249 -0.208,-0.324 -0.081,-0.054 -0.176,-0.072 -0.271,-0.072 2.234,-0.501 3.746,-1.048 4.406,-1.509 1.555,-1.085 4.674,-8.779 4.701,-8.854 0.062,-0.171 0.023,-0.362 -0.101,-0.495 -0.124,-0.133 -0.313,-0.185 -0.487,-0.135 -2.099,0.607 -9.431,2.756 -15.067,4.782 5.886,-2.181 14.28,-4.825 20.615,-6.679 0.142,-0.042 0.257,-0.146 0.313,-0.283 L 94.964,28.003 C 95.033,27.836 95,27.643 94.881,27.506 Z M 73.27,59.48 c -1.263,0.421 -9.051,1.392 -14.616,1.392 -0.012,0 -0.024,0 -0.036,0 1.033,-2.457 1.928,-4.524 2.667,-6.159 6.855,-0.123 11.653,-0.897 14.245,-1.447 -0.631,2.961 -1.629,6.004 -2.26,6.214 z m 6.733,-9.621 c -1.151,0.804 -7.205,2.595 -17.822,2.821 0.446,-1.109 1.034,-2.561 1.334,-2.941 0.942,-1.194 10.838,-4.551 20.455,-7.361 -1.123,2.649 -3.084,6.864 -3.967,7.481 z M 57.876,62.931 c 0.606,0.015 2.075,0.032 4.722,-0.057 2.395,-0.081 4.341,-0.319 5.399,-0.474 -0.615,1.385 -2.071,4.206 -4.041,5.038 -0.415,0.175 -1.267,0.386 -2.253,0.63 -2.191,0.542 -5.27,1.303 -7.58,2.609 0.986,-1.965 2.606,-5.229 3.753,-7.746 z M 89.72,38.409 c -3.552,1.043 -26.01,7.718 -27.905,10.246 -1.507,2.009 -6.737,14.753 -9.071,20.53 0.715,-9.722 2.713,-27.744 6.132,-29.973 4.268,-2.783 29.646,-9.358 34.835,-10.684 z"
           id="path9"
           style="fill:url(#linearGradient11)" />
        <path
           d="M 41.652,38.402 C 36.783,35.226 6.872,27.675 5.601,27.355 5.423,27.31 5.238,27.369 5.118,27.506 5,27.643 4.967,27.836 5.035,28.005 l 4.436,10.983 c 0.055,0.137 0.17,0.241 0.313,0.283 6.332,1.853 14.721,4.495 20.606,6.675 -5.634,-2.025 -12.959,-4.172 -15.057,-4.779 -0.179,-0.052 -0.369,0.006 -0.493,0.144 -0.124,0.138 -0.157,0.337 -0.087,0.509 0.532,1.299 3.261,7.831 4.691,8.831 0.658,0.459 2.158,1.003 4.374,1.502 -0.113,0.007 -0.222,0.052 -0.305,0.133 -0.118,0.114 -0.17,0.279 -0.139,0.44 0.322,1.669 1.495,7.153 3.051,7.672 1.465,0.488 9.557,1.441 14.973,1.441 0.245,0 0.485,-0.002 0.718,-0.006 0.16,-0.003 0.309,-0.085 0.397,-0.219 0.088,-0.134 0.103,-0.303 0.041,-0.451 -1.212,-2.898 -2.249,-5.296 -3.083,-7.128 -0.077,-0.17 -0.246,-0.28 -0.433,-0.283 -5.579,-0.083 -9.79,-0.601 -12.575,-1.087 3.17,0.526 7.257,0.926 12.072,0.995 0.002,0 0.004,0 0.007,0 v 0 0 c 0,0 0,0 0,0 0.066,0 0.129,-0.016 0.188,-0.042 0.005,-0.002 0.01,-0.001 0.015,-0.003 0.003,-0.002 0.006,-0.004 0.009,-0.006 0.038,-0.019 0.074,-0.042 0.106,-0.07 0.005,-0.004 0.008,-0.01 0.013,-0.014 0.024,-0.023 0.047,-0.048 0.067,-0.076 0.002,-0.003 0.003,-0.006 0.004,-0.008 0.009,-0.014 0.015,-0.029 0.023,-0.044 0.012,-0.024 0.024,-0.047 0.032,-0.072 0.005,-0.016 0.008,-0.032 0.011,-0.049 0.005,-0.026 0.01,-0.051 0.011,-0.077 0,-0.008 0.003,-0.015 0.003,-0.023 0,-0.006 -0.004,-0.011 -0.004,-0.017 -0.002,-0.056 -0.01,-0.111 -0.032,-0.164 l -0.229,-0.569 c -0.655,-1.63 -1.148,-2.82 -1.515,-3.286 -0.132,-0.167 -0.377,-0.356 -0.703,-0.56 0.43,0.25 0.733,0.472 0.87,0.655 1.394,1.859 6.407,14.04 8.794,19.935 -1.015,-2.035 -2.371,-4.8 -3.334,-6.933 -0.082,-0.182 -0.268,-0.299 -0.466,-0.284 -0.014,10e-4 -1.458,0.072 -4.971,-0.047 -3.503,-0.118 -6.094,-0.593 -6.12,-0.598 -0.17,-0.033 -0.345,0.03 -0.457,0.162 -0.112,0.132 -0.145,0.314 -0.086,0.477 0.075,0.208 1.875,5.103 4.896,6.379 0.486,0.205 1.329,0.414 2.398,0.678 2.67,0.66 6.705,1.658 8.79,3.531 0.092,0.082 0.207,0.124 0.323,0.124 0.104,0 0.208,-0.033 0.295,-0.1 0.033,-0.025 0.056,-0.057 0.081,-0.089 0.091,0.118 0.231,0.189 0.381,0.189 0.034,0 0.07,-0.004 0.105,-0.011 0.231,-0.051 0.392,-0.263 0.378,-0.499 -0.069,-1.243 -1.761,-30.483 -6.766,-33.747 z m -0.27,22.47 C 35.805,60.867 27.994,59.901 26.729,59.48 c -0.634,-0.211 -1.648,-3.304 -2.262,-6.213 2.592,0.55 7.391,1.324 14.248,1.447 0.742,1.639 1.637,3.707 2.667,6.158 z M 37.819,52.68 C 27.202,52.454 21.148,50.662 19.997,49.859 c -0.84,-0.586 -2.693,-4.487 -3.964,-7.48 9.616,2.81 19.511,6.166 20.452,7.36 0,0 0,0 0,0 0.3,0.38 0.889,1.832 1.334,2.941 z m 0.479,15.387 c -0.986,-0.244 -1.838,-0.455 -2.253,-0.63 -1.97,-0.832 -3.426,-3.653 -4.041,-5.038 1.058,0.155 3.003,0.394 5.399,0.474 2.647,0.089 4.116,0.073 4.722,0.057 1.147,2.518 2.766,5.781 3.753,7.745 -2.311,-1.306 -5.389,-2.067 -7.58,-2.608 z M 38.185,48.655 C 36.29,46.127 13.832,39.452 10.28,38.409 L 6.289,28.528 c 5.188,1.326 30.567,7.901 34.835,10.684 3.418,2.23 5.417,20.252 6.132,29.973 -2.335,-5.777 -7.565,-18.521 -9.071,-20.53 z"
           id="path10"
           style="fill:url(#linearGradient12)" />
      </g>
    </g>
    <g
       id="SvgjsG1041"
       featureKey="nameFeature-0"
       transform="matrix(0.95213302,0,0,0.95213302,107.98388,3.7355673)"
       fill="url(#SvgjsLinearGradient1047)"
       style="fill:url(#linearGradient16)">
      <path
         d="M 35.781,38.5937 25.703,24.5307 c 1.3541,-0.41664 2.552,-0.91141 3.5937,-1.4843 1.1459,-0.72914 2.0834,-1.5364 2.8125,-2.4218 0.83336,-0.98961 1.4323,-2.0573 1.797,-3.2032 0.46875,-1.25 0.70313,-2.6563 0.70313,-4.2188 0,-1.8229 -0.3125,-3.4635 -0.9375,-4.9219 -0.625,-1.4063 -1.5365,-2.6302 -2.7344,-3.6719 -1.1459,-0.98961 -2.6042,-1.7709 -4.3751,-2.3438 -1.8229,-0.57289 -3.75,-0.85938 -5.7813,-0.85938 h -16.563 v 5.9375 h 16.016 c 2.4479,0 4.3489,0.52086 5.703,1.5625 1.3541,1.04164 2.0313,2.6041 2.0313,4.6875 0,1.9271 -0.67711,3.4375 -2.0313,4.5313 -1.3541,1.1459 -3.2291,1.7188 -5.625,1.7188 h -16.094 v 18.75 h 6.4844 v -12.969 h 8.2031 l 9.1406,12.969 h 7.7344 v 0 z M 46.0938,1.406 h 27.813 v 5.9375 h -27.813 z m 0,31.2502 h 27.734 v 5.9375 h -27.734 z m 0,-15.7812 h 25.078 v 5.8594 H 46.0938 Z M 113.438,8.75 c -0.67711,-1.4584 -1.6147,-2.7605 -2.8126,-3.9063 -1.25,-1.0938 -2.7344,-1.9531 -4.4531,-2.5781 -1.875,-0.57289 -3.8541,-0.85938 -5.9375,-0.85938 h -14.609 v 5.8594 h 14.063 c 2.3438,0 4.2969,0.57289 5.8594,1.7188 1.4584,1.0938 2.1875,2.7604 2.1875,5 0,2.0313 -0.70313,3.6719 -2.1094,4.9219 -1.5104,1.1979 -3.4895,1.7969 -5.9374,1.7969 h -14.063 v 17.891 h 6.4844 v -11.953 h 7.3438 c 1.9271,0 3.8802,-0.28648 5.8594,-0.85938 1.8229,-0.57289 3.3854,-1.3802 4.6875,-2.4218 1.3541,-1.0416 2.4219,-2.3698 3.2031,-3.9844 0.78125,-1.5625 1.1719,-3.3854 1.1719,-5.4688 0,-1.9791 -0.3125,-3.6979 -0.9375,-5.1563 z m 13.5933,-7.344 h 6.4063 v 31.25 h 19.531 v 5.9375 h -25.938 V 1.4055 Z M 183.281,16.875 V 1.328 h -6.5625 v 37.344 h 6.5625 z M 206.0938,1.406 h 27.813 v 5.9375 h -27.813 z m 0,15.469 h 5.9375 v 21.719 h -5.9375 z m 0,0 h 25.078 v 5.8594 h -25.078 z M 263.281,7.5 h 11.797 V 1.4062 H 244.922 V 7.5 Z m -6.562,6.094 h 6.5625 v 25 h -6.5625 z"
         id="path11"
         style="fill:url(#linearGradient15)" />
    </g>
  </g>
</svg>
